<?xml version="1.0" encoding="UTF-8" standalone="no"?>
<!-- Created with Inkscape (http://www.inkscape.org/) -->

<svg
   width="20cm"
   height="20cm"
   viewBox="0 0 200 200"
   version="1.1"
   id="svg1"
   xml:space="preserve"
   inkscape:export-filename="kuckuck_test_1.png"
   inkscape:export-xdpi="96"
   inkscape:export-ydpi="96"
   sodipodi:docname="eichelhaeher.svg"
   inkscape:version="1.4.3 (0d15f75042, 2025-12-25)"
   xmlns:inkscape="http://www.inkscape.org/namespaces/inkscape"
   xmlns:sodipodi="http://sodipodi.sourceforge.net/DTD/sodipodi-0.dtd"
   xmlns:xlink="http://www.w3.org/1999/xlink"
   xmlns="http://www.w3.org/2000/svg"
   xmlns:svg="http://www.w3.org/2000/svg"><sodipodi:namedview
     id="namedview1"
     pagecolor="#ffffff"
     bordercolor="#000000"
     borderopacity="0.25"
     inkscape:showpageshadow="2"
     inkscape:pageopacity="0.0"
     inkscape:pagecheckerboard="0"
     inkscape:deskcolor="#d1d1d1"
     inkscape:document-units="mm"
     inkscape:zoom="1.0519801"
     inkscape:cx="326.05181"
     inkscape:cy="433.94359"
     inkscape:window-width="1920"
     inkscape:window-height="1043"
     inkscape:window-x="0"
     inkscape:window-y="0"
     inkscape:window-maximized="1"
     inkscape:current-layer="layer1"
     showgrid="false" /><defs
     id="defs1"><linearGradient
       id="swatch7"
       inkscape:swatch="solid"><stop
         style="stop-color:#ff00ff;stop-opacity:1;"
         offset="0"
         id="stop7" /></linearGradient><linearGradient
       id="swatch6"
       inkscape:swatch="solid"><stop
         style="stop-color:#ff00ff;stop-opacity:1;"
         offset="0"
         id="stop6" /></linearGradient><linearGradient
       id="swatch5"
       inkscape:swatch="solid"><stop
         style="stop-color:#ff00ff;stop-opacity:1;"
         offset="0"
         id="stop5" /></linearGradient><linearGradient
       id="swatch4"
       inkscape:swatch="solid"><stop
         style="stop-color:#000000;stop-opacity:1;"
         offset="0"
         id="stop4" /></linearGradient><linearGradient
       id="swatch3"
       inkscape:swatch="solid"
       inkscape:label="Cutkontur"><stop
         style="stop-color:#ff00ff;stop-opacity:1;"
         offset="0"
         id="stop3" /></linearGradient><linearGradient
       inkscape:collect="always"
       xlink:href="#swatch3"
       id="linearGradient7"
       x1="4.4428177"
       y1="95.232948"
       x2="192.3288"
       y2="95.232948"
       gradientUnits="userSpaceOnUse"
       gradientTransform="matrix(1.0104605,0,0,1.0104605,0.6140618,-0.34040026)" /></defs><g
     inkscape:label="Layer 1"
     inkscape:groupmode="layer"
     id="layer1"
     style="display:inline"><path
       style="fill:none;stroke:url(#linearGradient7);stroke-width:0.08819444;stroke-dasharray:none"
       d="m 115.21308,157.94344 c -1.32507,-2.17347 -1.16305,-4.27116 0.52219,-6.76081 1.22964,-1.81657 1.82741,-2.24932 4.39384,-3.18086 1.63382,-0.59303 2.89992,-1.29492 2.81356,-1.55977 -0.44353,-1.36032 -12.52546,-8.79407 -17.07557,-10.50626 -1.21413,-0.45687 -2.58173,-1.39843 -3.25285,-2.23952 -1.11068,-1.39197 -1.25344,-1.44139 -3.495291,-1.21002 -1.853181,0.19127 -2.513995,0.0813 -3.19031,-0.53071 -0.46915,-0.42458 -1.138119,-0.66255 -1.486599,-0.52883 -0.364932,0.14004 -0.973016,-0.20883 -1.434045,-0.82274 -0.440245,-0.58624 -1.133733,-1.06589 -1.541084,-1.06589 -0.407351,0 -1.026857,-0.28621 -1.376681,-0.63604 -0.349823,-0.34982 -0.789436,-0.49762 -0.976918,-0.32844 -0.187481,0.16917 -0.217127,-0.0373 -0.06588,-0.45879 0.216263,-0.60269 0.03409,-0.76638 -0.85294,-0.76638 -0.858498,0 -1.063089,-0.16899 -0.856469,-0.70743 0.227399,-0.59259 0.03951,-0.66266 -1.157457,-0.43162 -0.785906,0.1517 -4.582024,0.46467 -8.435814,0.69549 -3.853791,0.23082 -7.992237,0.64516 -9.196547,0.92074 -1.204309,0.2756 -4.948617,0.55105 -8.320685,0.61213 l -6.131029,0.11106 -12.481028,6.16067 c -6.864565,3.38836 -14.944388,7.58038 -17.955162,9.31559 -8.878413,5.11693 -11.40088,6.07868 -11.980618,4.56791 -0.195552,-0.5096 -0.49895,-0.55742 -1.389155,-0.21896 -0.6264284,0.23816 -2.0498111,0.43303 -3.1630728,0.43303 H 5.1033538 l 1.2862427,-1.36227 c 2.872789,-3.04259 20.9407325,-14.15903 34.8026835,-21.41263 5.946793,-3.11181 16.776686,-9.6279 16.48559,-9.919 -0.168084,-0.16808 -3.82455,1.22246 -8.981584,3.41565 -2.247532,0.95584 -4.30897,1.66371 -4.580973,1.57304 -0.916179,-0.30539 4.408328,-4.01874 11.09036,-7.73447 5.424199,-3.0163 7.007509,-4.12649 8.675082,-6.08287 4.758096,-5.58214 6.360189,-7.05334 13.645042,-12.53022 5.130674,-3.857332 9.316334,-6.60625 12.663466,-8.31669 4.216461,-2.154679 5.691433,-3.209959 9.415512,-6.736394 6.959815,-6.590442 14.760625,-11.906353 23.188305,-15.801818 4.44007,-2.052299 6.59113,-4.335491 10.48326,-11.127181 3.30899,-5.774153 3.8035,-7.010773 2.63238,-6.582889 -0.74383,0.271766 -0.74131,0.229294 0.0392,-0.659652 0.62906,-0.716426 0.68291,-0.953545 0.21897,-0.964047 -0.45912,-0.0104 -0.42249,-0.160327 0.14428,-0.590715 0.41777,-0.317233 0.64749,-0.688875 0.51049,-0.825872 -0.137,-0.136997 0.75287,-0.99712 1.97749,-1.911383 1.22462,-0.914263 2.22658,-1.823384 2.22658,-2.020268 0,-0.196884 2.00249,-1.337231 4.44997,-2.534105 2.44748,-1.196874 4.02404,-2.176135 3.50345,-2.176135 -2.01076,0 -0.80849,-0.8031 2.00951,-1.342332 5.67044,-1.085055 12.16589,-0.623347 17.06306,1.212873 0.68701,0.257599 0.70919,0.203182 0.18158,-0.445444 -0.33056,-0.406389 -0.4291,-0.738153 -0.21897,-0.737253 0.54937,0.0023 3.26567,1.680134 4.50306,2.781411 0.87353,0.777435 1.008,0.807255 0.78013,0.172985 -0.4925,-1.370788 0.4538,-0.811607 2.22335,1.313792 1.79649,2.157764 3.1487,4.467632 3.19186,5.452386 0.0432,0.98668 4.21406,3.806778 7.07764,4.785532 3.69612,1.26331 5.70724,2.310242 7.55592,3.933401 1.36331,1.197007 2.11682,2.738313 1.21648,2.488337 -0.18064,-0.05016 -1.46899,0.343982 -2.86298,0.875861 -1.86841,0.712896 -3.47873,0.967054 -6.12715,0.967054 -3.24117,0 -3.90434,0.154026 -6.77919,1.574513 -3.29512,1.628153 -4.5242,2.938244 -6.60744,7.042933 -1.52127,2.997446 -3.05535,8.967981 -4.00631,15.592299 -0.4916,3.424542 -1.17907,7.348855 -1.5277,8.720706 -1.33559,5.255486 -4.6898,11.199915 -10.35705,18.355055 -8.36304,10.5587 -22.14027,20.37548 -33.45546,23.83823 -2.16109,0.66136 -4.07319,1.32785 -4.24913,1.48109 -0.27521,0.23976 4.34052,3.13734 13.67676,8.58579 3.1438,1.83466 5.37975,2.5295 7.36656,2.28924 2.05382,-0.24838 3.90951,0.3832 4.24661,1.44531 0.14452,0.45533 0.86461,1.25642 1.6002,1.78022 2.32406,1.65487 3.38158,6.12707 1.90917,8.07377 -0.59478,0.78636 -0.64402,0.69416 -0.6569,-1.23009 -0.0117,-1.7473 -0.14715,-2.08017 -0.84653,-2.08017 -0.49565,0 -1.22987,-0.66461 -1.81424,-1.64224 -1.35876,-2.27313 -1.56123,-1.14458 -0.45063,2.51182 0.83406,2.74595 0.86253,3.17908 0.29441,4.47912 l -0.62893,1.43923 -0.0424,-1.53276 c -0.0512,-1.8498 -0.38288,-2.415 -1.64886,-2.80993 -0.52962,-0.16522 -1.09945,-0.73048 -1.26629,-1.25614 -0.30147,-0.94985 -0.3062,-0.94904 -0.76626,0.13189 l -0.46293,1.08762 -0.15205,-1.32014 c -0.12527,-1.08763 -0.55348,-1.52883 -2.43114,-2.50487 -1.99892,-1.03909 -2.77987,-1.18486 -6.35319,-1.18584 -3.59819,-9.8e-4 -4.4231,0.15493 -7.06164,1.33473 -2.01972,0.90309 -3.15116,1.69494 -3.49263,2.44438 -0.41679,0.91477 -0.73912,1.07419 -1.84403,0.91202 -1.12246,-0.16473 -1.41119,-0.0131 -1.78581,0.93747 -0.30465,0.77306 -0.30307,1.6903 0.005,2.88185 0.58275,2.25445 0.34815,2.4371 -0.77146,0.60066 z"
       id="path1" /><path
       style="fill:none;stroke:url(#linearGradient7);stroke-width:0.08819444;stroke-dasharray:none"
       d="m 129.20163,143.81355 c 0,-0.70994 -16.49675,-10.33414 -17.71365,-10.33414 -1.00803,0 -0.20575,0.631 5.01366,3.94332 6.31387,4.00686 12.69999,7.22044 12.69999,6.39082 z"
       id="path6" /></g></svg>
